<?xml version="1.0" encoding="UTF-8" standalone="no"?>
<!-- Created with Inkscape (http://www.inkscape.org/) -->

<svg
   xmlns:dc="http://purl.org/dc/elements/1.1/"
   xmlns:cc="http://creativecommons.org/ns#"
   xmlns:rdf="http://www.w3.org/1999/02/22-rdf-syntax-ns#"
   xmlns:svg="http://www.w3.org/2000/svg"
   xmlns="http://www.w3.org/2000/svg"
   xmlns:sodipodi="http://sodipodi.sourceforge.net/DTD/sodipodi-0.dtd"
   xmlns:inkscape="http://www.inkscape.org/namespaces/inkscape"
   width="210mm"
   height="297mm"
   viewBox="0 0 744.09448819 1052.3622047"
   id="svg2"
   version="1.1"
   inkscape:version="0.91 r13725"
   inkscape:export-filename="C:\Users\raliya.nandigam\Desktop\logan.png"
   inkscape:export-xdpi="90"
   inkscape:export-ydpi="90"
   sodipodi:docname="logsn.svg">
  <defs
     id="defs4" />
  <sodipodi:namedview
     id="base"
     pagecolor="#ffffff"
     bordercolor="#666666"
     borderopacity="1.0"
     inkscape:pageopacity="0.0"
     inkscape:pageshadow="2"
     inkscape:zoom="0.35355339"
     inkscape:cx="-3166.4241"
     inkscape:cy="-420.58073"
     inkscape:document-units="px"
     inkscape:current-layer="layer1"
     showgrid="false"
     inkscape:object-nodes="true"
     showguides="false"
     inkscape:object-paths="true"
     inkscape:window-width="1366"
     inkscape:window-height="706"
     inkscape:window-x="-8"
     inkscape:window-y="-8"
     inkscape:window-maximized="1" />
  <metadata
     id="metadata7">
    <rdf:RDF>
      <cc:Work
         rdf:about="">
        <dc:format>image/svg+xml</dc:format>
        <dc:type
           rdf:resource="http://purl.org/dc/dcmitype/StillImage" />
        <dc:title></dc:title>
      </cc:Work>
    </rdf:RDF>
  </metadata>
  <g
     inkscape:label="Layer 1"
     inkscape:groupmode="layer"
     id="layer1">
    <g
       id="g4181"
       transform="translate(-2017.5118,-7.4142136)">
      <path
         sodipodi:nodetypes="ccccccc"
         inkscape:connector-curvature="0"
         id="path4177"
         d="M 45.714287,495.21936 C -2.3214343,461.18364 7.5,344.8622 7.5,344.8622 c 0,0 4.577822,25.32452 18.5,30 0,0 -5.857676,-8.60984 -4,-20.5 6.521005,24.33672 66.144478,20.60624 73.714289,48.85716 l 0,94.64284 z"
         style="fill:#4d4d4d;fill-opacity:1;fill-rule:evenodd;stroke:none;stroke-width:1px;stroke-linecap:butt;stroke-linejoin:miter;stroke-opacity:1" />
      <path
         style="fill:#4d4d4d;fill-opacity:1;fill-rule:evenodd;stroke:#4d4d4d;stroke-width:1px;stroke-linecap:butt;stroke-linejoin:miter;stroke-opacity:1"
         d="m 145.71429,495.21936 c 48.03573,-34.03572 38.21429,-150.35716 38.21429,-150.35716 0,0 -4.57782,25.32452 -18.5,30 0,0 5.85767,-8.60984 4,-20.5 -6.52101,24.33672 -66.14448,20.60624 -73.714291,48.85716 l 0,94.64284 z"
         id="path4179"
         inkscape:connector-curvature="0"
         sodipodi:nodetypes="ccccccc" />
    </g>
    <path
       style="fill:#ffe6d5;stroke-width:4;stroke-miterlimit:4;stroke-dasharray:none"
       d="m -1971.7975,493.80514 100,0 c 0,0 1.3737,25.46312 0,30 -1.3736,4.53688 -15.8853,27.79774 -20.0003,30 -4.115,2.20226 -55.8851,2.20225 -60,0 -4.1149,-2.20225 -18.626,-25.46315 -19.9997,-30 -1.3736,-4.53685 0,-30 0,-30 z"
       id="rect4143"
       inkscape:connector-curvature="0"
       sodipodi:nodetypes="cczzzzc" />
    <path
       style="fill:#ffe6d5;stroke-width:4;stroke-miterlimit:4;stroke-dasharray:none"
       d="m -1971.7975,417.80515 c 12.0185,12.0185 37.9815,7.98149 50,20 12.0185,-12.01851 37.9815,-7.98149 50,-20 l 0,76 -100,0 z"
       id="rect4146"
       inkscape:connector-curvature="0"
       sodipodi:nodetypes="cccccc" />
    <ellipse
       style="fill:#ffe6d5;fill-opacity:1;stroke:none;stroke-width:4;stroke-miterlimit:4;stroke-dasharray:none;stroke-opacity:1"
       id="path4209"
       cx="-2002.8977"
       cy="-295.4848"
       rx="16.5"
       ry="26.697561"
       transform="matrix(0.92702849,-0.3749909,0.3749909,0.92702849,0,0)" />
    <path
       style="fill:#4d4d4d;fill-opacity:1;stroke-width:4;stroke-miterlimit:4;stroke-dasharray:none"
       d="m -1972.0039,498.1854 c -0.3225,7.47488 -0.8099,22.26059 0.207,25.61914 1.3736,4.53685 15.8851,27.79775 20,30 4.1149,2.20225 55.885,2.20226 60,0 4.115,-2.20226 18.6263,-25.46312 20,-30 1.0156,-3.3544 0.5295,-18.1041 0.207,-25.58789 a 74,74 0 0 1 -24.832,15.19141 27.5,27.5 0 0 1 2.125,10.53906 27.5,27.5 0 0 1 -27.5,27.5 27.5,27.5 0 0 1 -27.5,-27.5 27.5,27.5 0 0 1 2.1406,-10.62891 74,74 0 0 1 -24.8476,-15.13281 z"
       id="path4153"
       inkscape:connector-curvature="0" />
    <path
       style="fill:#333333;fill-opacity:1;stroke:none;stroke-width:4;stroke-miterlimit:4;stroke-dasharray:none;stroke-opacity:1"
       d="m -1947.8673,438.36386 a 17.92838,17.92838 0 0 0 1.3054,25.32093 17.92838,17.92838 0 0 0 1.027,0.85505 17.92838,17.92838 0 0 1 -0.5573,-24.57493 17.92838,17.92838 0 0 1 24.2947,-2.15976 17.92838,17.92838 0 0 0 -0.7488,-0.74668 17.92838,17.92838 0 0 0 -25.321,1.30541 z"
       id="path4200"
       inkscape:connector-curvature="0" />
    <path
       inkscape:connector-curvature="0"
       id="path4207"
       d="m -1936.2556,443.89552 a 10.786664,10.786664 0 0 0 6.342,13.87381 10.786664,10.786664 0 0 0 0.764,0.25065 10.786664,10.786664 0 0 1 -5.7583,-13.62233 10.786664,10.786664 0 0 1 13.1104,-6.5925 10.786664,10.786664 0 0 0 -0.5843,-0.25168 10.786664,10.786664 0 0 0 -13.8738,6.34206 z"
       style="fill:#333333;fill-opacity:1;stroke:none;stroke-width:4;stroke-miterlimit:4;stroke-dasharray:none;stroke-opacity:1" />
    <ellipse
       transform="matrix(-0.92702849,-0.3749909,-0.3749909,0.92702849,0,0)"
       ry="26.697561"
       rx="16.5"
       cy="1145.8284"
       cx="1560.2241"
       id="ellipse4211"
       style="fill:#ffe6d5;fill-opacity:1;stroke:none;stroke-width:4;stroke-miterlimit:4;stroke-dasharray:none;stroke-opacity:1" />
    <g
       id="g4233"
       transform="matrix(2.5902943,0,0,2.5902943,-2308.1641,-633.81006)">
      <g
         id="g4213"
         transform="translate(287.08535,-6)">
        <path
           sodipodi:nodetypes="ccccccc"
           inkscape:connector-curvature="0"
           id="path4215"
           d="M 45.714287,495.21936 C -2.3214343,461.18364 7.5,344.8622 7.5,344.8622 c 0,0 4.577822,25.32452 18.5,30 0,0 -5.857676,-8.60984 -4,-20.5 6.521005,24.33672 66.144478,20.60624 73.714289,48.85716 l 0,94.64284 z"
           style="fill:#4d4d4d;fill-opacity:1;fill-rule:evenodd;stroke:none;stroke-width:1px;stroke-linecap:butt;stroke-linejoin:miter;stroke-opacity:1" />
        <path
           style="fill:#4d4d4d;fill-opacity:1;fill-rule:evenodd;stroke:#4d4d4d;stroke-width:1px;stroke-linecap:butt;stroke-linejoin:miter;stroke-opacity:1"
           d="m 145.71429,495.21936 c 48.03573,-34.03572 38.21429,-150.35716 38.21429,-150.35716 0,0 -4.57782,25.32452 -18.5,30 0,0 5.85767,-8.60984 4,-20.5 -6.52101,24.33672 -66.14448,20.60624 -73.714291,48.85716 l 0,94.64284 z"
           id="path4217"
           inkscape:connector-curvature="0"
           sodipodi:nodetypes="ccccccc" />
      </g>
      <path
         style="fill:#ffe6d5;stroke-width:4;stroke-miterlimit:4;stroke-dasharray:none"
         d="m 332.79964,495.21935 100,0 c 0,0 1.37367,25.46312 0,30 -1.37367,4.53688 -15.88529,27.79774 -20.00029,30 -4.115,2.20226 -55.88509,2.20225 -60,0 -4.1149,-2.20225 -18.62608,-25.46315 -19.99971,-30 -1.37363,-4.53685 0,-30 0,-30 z"
         id="path4219"
         inkscape:connector-curvature="0"
         sodipodi:nodetypes="cczzzzc" />
      <path
         style="fill:#ffe6d5;stroke-width:4;stroke-miterlimit:4;stroke-dasharray:none"
         d="m 332.79964,419.21936 c 12.01851,12.0185 37.9815,7.98149 50,20 12.0185,-12.01851 37.98149,-7.98149 50,-20 l 0,76 -100,0 z"
         id="path4221"
         inkscape:connector-curvature="0"
         sodipodi:nodetypes="cccccc" />
      <ellipse
         style="fill:#ffe6d5;fill-opacity:1;stroke:none;stroke-width:4;stroke-miterlimit:4;stroke-dasharray:none;stroke-opacity:1"
         id="ellipse4223"
         cx="132.99915"
         cy="570.02917"
         rx="16.5"
         ry="26.697561"
         transform="matrix(0.92702849,-0.3749909,0.3749909,0.92702849,0,0)" />
      <path
         inkscape:connector-curvature="0"
         style="fill:#4d4d4d;fill-opacity:1;stroke-width:4;stroke-miterlimit:4;stroke-dasharray:none"
         d="m 332.59317,499.59961 c -0.32243,7.47488 -0.80985,22.26059 0.20703,25.61914 1.37363,4.53685 15.8851,27.79775 20,30 4.11491,2.20225 55.88499,2.20226 59.99999,0 4.115,-2.20226 18.62633,-25.46312 20,-30 1.01565,-3.3544 0.52948,-18.1041 0.20704,-25.58789 a 74,74 0 0 1 -24.83204,15.19141 27.5,27.5 0 0 1 2.125,10.53906 27.5,27.5 0 0 1 -27.49999,27.5 27.5,27.5 0 0 1 -27.5,-27.5 27.5,27.5 0 0 1 2.14062,-10.62891 74,74 0 0 1 -24.84765,-15.13281 z"
         id="path4225" />
      <path
         style="fill:#333333;fill-opacity:1;stroke:none;stroke-width:4;stroke-miterlimit:4;stroke-dasharray:none;stroke-opacity:1"
         d="m 356.72985,439.77807 a 17.92838,17.92838 0 0 0 1.3054,25.32093 17.92838,17.92838 0 0 0 1.02699,0.85505 17.92838,17.92838 0 0 1 -0.55731,-24.57493 17.92838,17.92838 0 0 1 24.29471,-2.15976 17.92838,17.92838 0 0 0 -0.74888,-0.74668 17.92838,17.92838 0 0 0 -25.32093,1.30541 z"
         id="path4227"
         inkscape:connector-curvature="0" />
      <path
         inkscape:connector-curvature="0"
         id="path4229"
         d="m 368.34148,445.30973 a 10.786664,10.786664 0 0 0 6.34205,13.87381 10.786664,10.786664 0 0 0 0.76395,0.25065 10.786664,10.786664 0 0 1 -5.75828,-13.62233 10.786664,10.786664 0 0 1 13.11044,-6.5925 10.786664,10.786664 0 0 0 -0.58436,-0.25168 10.786664,10.786664 0 0 0 -13.87381,6.34206 z"
         style="fill:#333333;fill-opacity:1;stroke:none;stroke-width:4;stroke-miterlimit:4;stroke-dasharray:none;stroke-opacity:1" />
      <ellipse
         transform="matrix(-0.92702849,-0.3749909,-0.3749909,0.92702849,0,0)"
         ry="26.697561"
         rx="16.5"
         cy="282.93646"
         cx="-576.73334"
         id="ellipse4231"
         style="fill:#ffe6d5;fill-opacity:1;stroke:none;stroke-width:4;stroke-miterlimit:4;stroke-dasharray:none;stroke-opacity:1" />
    </g>
    <ellipse
       style="fill:#4d4d4d;fill-opacity:1;stroke:none;stroke-width:4;stroke-miterlimit:4;stroke-dasharray:none;stroke-opacity:1"
       id="path4245"
       cx="1047.4497"
       cy="1722.3718"
       rx="5.6568542"
       ry="390.32294"
       transform="matrix(0.99804613,-0.06248141,0.06248141,0.99804613,0,0)" />
    <ellipse
       ry="390.32294"
       rx="5.6568542"
       cy="1654.3229"
       cx="1216.0193"
       id="ellipse4247"
       style="fill:#4d4d4d;fill-opacity:1;stroke:none;stroke-width:4;stroke-miterlimit:4;stroke-dasharray:none;stroke-opacity:1" />
    <ellipse
       style="fill:#4d4d4d;fill-opacity:1;stroke:none;stroke-width:4;stroke-miterlimit:4;stroke-dasharray:none;stroke-opacity:1"
       id="ellipse4249"
       cx="1116.0143"
       cy="805.18646"
       rx="5.6568542"
       ry="390.32294" />
    <ellipse
       transform="matrix(-0.99804613,-0.06248141,-0.06248141,0.99804613,0,0)"
       ry="390.32294"
       rx="5.6568542"
       cy="1570.4147"
       cx="-1379.837"
       id="ellipse4251"
       style="fill:#4d4d4d;fill-opacity:1;stroke:none;stroke-width:4;stroke-miterlimit:4;stroke-dasharray:none;stroke-opacity:1" />
    <g
       id="g4259"
       transform="matrix(0.8660254,0.5,-0.5,0.8660254,738.61784,278.03498)">
      <ellipse
         style="fill:#4d4d4d;fill-opacity:1;stroke:none;stroke-width:4;stroke-miterlimit:4;stroke-dasharray:none;stroke-opacity:1"
         id="ellipse4253"
         cx="-316.50186"
         cy="398.56372"
         rx="5.6568542"
         ry="390.32294"
         transform="matrix(0.99804613,-0.06248141,0.06248141,0.99804613,0,0)" />
      <ellipse
         ry="390.32294"
         rx="5.6568542"
         cy="418.32294"
         cx="-227.98065"
         id="ellipse4255"
         style="fill:#4d4d4d;fill-opacity:1;stroke:none;stroke-width:4;stroke-miterlimit:4;stroke-dasharray:none;stroke-opacity:1" />
      <ellipse
         transform="matrix(-0.99804613,-0.06248141,-0.06248141,0.99804613,0,0)"
         ry="390.32294"
         rx="5.6568542"
         cy="427.0528"
         cx="138.56857"
         id="ellipse4257"
         style="fill:#4d4d4d;fill-opacity:1;stroke:none;stroke-width:4;stroke-miterlimit:4;stroke-dasharray:none;stroke-opacity:1" />
    </g>
    <g
       transform="matrix(-0.8660254,0.5,0.5,0.8660254,-31.59802,278.03498)"
       id="g4264">
      <ellipse
         transform="matrix(0.99804613,-0.06248141,0.06248141,0.99804613,0,0)"
         ry="390.32294"
         rx="5.6568542"
         cy="398.56372"
         cx="-316.50186"
         id="ellipse4266"
         style="fill:#4d4d4d;fill-opacity:1;stroke:none;stroke-width:4;stroke-miterlimit:4;stroke-dasharray:none;stroke-opacity:1" />
      <ellipse
         style="fill:#4d4d4d;fill-opacity:1;stroke:none;stroke-width:4;stroke-miterlimit:4;stroke-dasharray:none;stroke-opacity:1"
         id="ellipse4268"
         cx="-227.98065"
         cy="418.32294"
         rx="5.6568542"
         ry="390.32294" />
      <ellipse
         style="fill:#4d4d4d;fill-opacity:1;stroke:none;stroke-width:4;stroke-miterlimit:4;stroke-dasharray:none;stroke-opacity:1"
         id="ellipse4270"
         cx="138.56857"
         cy="427.0528"
         rx="5.6568542"
         ry="390.32294"
         transform="matrix(-0.99804613,-0.06248141,-0.06248141,0.99804613,0,0)" />
    </g>
    <g
       id="g4310"
       transform="translate(121.87961,-25.3482)">
      <g
         id="g4272"
         transform="matrix(0.54728992,0.31597799,-0.31597799,0.54728992,-1194.4611,619.54895)">
        <ellipse
           style="fill:#4d4d4d;fill-opacity:1;stroke:none;stroke-width:4;stroke-miterlimit:4;stroke-dasharray:none;stroke-opacity:1"
           id="ellipse4274"
           cx="-316.50186"
           cy="398.56372"
           rx="5.6568542"
           ry="390.32294"
           transform="matrix(0.99804613,-0.06248141,0.06248141,0.99804613,0,0)" />
        <ellipse
           ry="390.32294"
           rx="5.6568542"
           cy="418.32294"
           cx="-227.98065"
           id="ellipse4276"
           style="fill:#4d4d4d;fill-opacity:1;stroke:none;stroke-width:4;stroke-miterlimit:4;stroke-dasharray:none;stroke-opacity:1" />
        <ellipse
           transform="matrix(-0.99804613,-0.06248141,-0.06248141,0.99804613,0,0)"
           ry="390.32294"
           rx="5.6568542"
           cy="427.0528"
           cx="138.56857"
           id="ellipse4278"
           style="fill:#4d4d4d;fill-opacity:1;stroke:none;stroke-width:4;stroke-miterlimit:4;stroke-dasharray:none;stroke-opacity:1" />
      </g>
      <g
         transform="matrix(-0.54728992,0.31597799,0.31597799,0.54728992,-1681.2036,619.54895)"
         id="g4280">
        <ellipse
           transform="matrix(0.99804613,-0.06248141,0.06248141,0.99804613,0,0)"
           ry="390.32294"
           rx="5.6568542"
           cy="398.56372"
           cx="-316.50186"
           id="ellipse4282"
           style="fill:#4d4d4d;fill-opacity:1;stroke:none;stroke-width:4;stroke-miterlimit:4;stroke-dasharray:none;stroke-opacity:1" />
        <ellipse
           style="fill:#4d4d4d;fill-opacity:1;stroke:none;stroke-width:4;stroke-miterlimit:4;stroke-dasharray:none;stroke-opacity:1"
           id="ellipse4284"
           cx="-227.98065"
           cy="418.32294"
           rx="5.6568542"
           ry="390.32294" />
        <ellipse
           style="fill:#4d4d4d;fill-opacity:1;stroke:none;stroke-width:4;stroke-miterlimit:4;stroke-dasharray:none;stroke-opacity:1"
           id="ellipse4286"
           cx="138.56857"
           cy="427.0528"
           rx="5.6568542"
           ry="390.32294"
           transform="matrix(-0.99804613,-0.06248141,-0.06248141,0.99804613,0,0)" />
      </g>
    </g>
    <g
       transform="matrix(2.5902943,0,0,2.5902943,-1451.1507,-662.09433)"
       id="g4288">
      <g
         transform="translate(287.08535,-6)"
         id="g4290">
        <path
           style="fill:#4d4d4d;fill-opacity:1;fill-rule:evenodd;stroke:none;stroke-width:1px;stroke-linecap:butt;stroke-linejoin:miter;stroke-opacity:1"
           d="M 45.714287,495.21936 C -2.3214343,461.18364 7.5,344.8622 7.5,344.8622 c 0,0 4.577822,25.32452 18.5,30 0,0 -5.857676,-8.60984 -4,-20.5 6.521005,24.33672 66.144478,20.60624 73.714289,48.85716 l 0,94.64284 z"
           id="path4292"
           inkscape:connector-curvature="0"
           sodipodi:nodetypes="ccccccc" />
        <path
           sodipodi:nodetypes="ccccccc"
           inkscape:connector-curvature="0"
           id="path4294"
           d="m 145.71429,495.21936 c 48.03573,-34.03572 38.21429,-150.35716 38.21429,-150.35716 0,0 -4.57782,25.32452 -18.5,30 0,0 5.85767,-8.60984 4,-20.5 -6.52101,24.33672 -66.14448,20.60624 -73.714291,48.85716 l 0,94.64284 z"
           style="fill:#4d4d4d;fill-opacity:1;fill-rule:evenodd;stroke:#4d4d4d;stroke-width:1px;stroke-linecap:butt;stroke-linejoin:miter;stroke-opacity:1" />
      </g>
      <path
         sodipodi:nodetypes="cczzzzc"
         inkscape:connector-curvature="0"
         id="path4296"
         d="m 332.79964,495.21935 100,0 c 0,0 1.37367,25.46312 0,30 -1.37367,4.53688 -15.88529,27.79774 -20.00029,30 -4.115,2.20226 -55.88509,2.20225 -60,0 -4.1149,-2.20225 -18.62608,-25.46315 -19.99971,-30 -1.37363,-4.53685 0,-30 0,-30 z"
         style="fill:#ffe6d5;stroke-width:4;stroke-miterlimit:4;stroke-dasharray:none" />
      <path
         sodipodi:nodetypes="cccccc"
         inkscape:connector-curvature="0"
         id="path4298"
         d="m 332.79964,419.21936 c 12.01851,12.0185 37.9815,7.98149 50,20 12.0185,-12.01851 37.98149,-7.98149 50,-20 l 0,76 -100,0 z"
         style="fill:#ffe6d5;stroke-width:4;stroke-miterlimit:4;stroke-dasharray:none" />
      <ellipse
         transform="matrix(0.92702849,-0.3749909,0.3749909,0.92702849,0,0)"
         ry="26.697561"
         rx="16.5"
         cy="570.02917"
         cx="132.99915"
         id="ellipse4300"
         style="fill:#ffe6d5;fill-opacity:1;stroke:none;stroke-width:4;stroke-miterlimit:4;stroke-dasharray:none;stroke-opacity:1" />
      <path
         id="path4302"
         d="m 332.59317,499.59961 c -0.32243,7.47488 -0.80985,22.26059 0.20703,25.61914 1.37363,4.53685 15.8851,27.79775 20,30 4.11491,2.20225 55.88499,2.20226 59.99999,0 4.115,-2.20226 18.62633,-25.46312 20,-30 1.01565,-3.3544 0.52948,-18.1041 0.20704,-25.58789 a 74,74 0 0 1 -24.83204,15.19141 27.5,27.5 0 0 1 2.125,10.53906 27.5,27.5 0 0 1 -27.49999,27.5 27.5,27.5 0 0 1 -27.5,-27.5 27.5,27.5 0 0 1 2.14062,-10.62891 74,74 0 0 1 -24.84765,-15.13281 z"
         style="fill:#4d4d4d;fill-opacity:1;stroke-width:4;stroke-miterlimit:4;stroke-dasharray:none"
         inkscape:connector-curvature="0" />
      <path
         inkscape:connector-curvature="0"
         id="path4304"
         d="m 356.72985,439.77807 a 17.92838,17.92838 0 0 0 1.3054,25.32093 17.92838,17.92838 0 0 0 1.02699,0.85505 17.92838,17.92838 0 0 1 -0.55731,-24.57493 17.92838,17.92838 0 0 1 24.29471,-2.15976 17.92838,17.92838 0 0 0 -0.74888,-0.74668 17.92838,17.92838 0 0 0 -25.32093,1.30541 z"
         style="fill:#333333;fill-opacity:1;stroke:none;stroke-width:4;stroke-miterlimit:4;stroke-dasharray:none;stroke-opacity:1" />
      <path
         style="fill:#333333;fill-opacity:1;stroke:none;stroke-width:4;stroke-miterlimit:4;stroke-dasharray:none;stroke-opacity:1"
         d="m 368.34148,445.30973 a 10.786664,10.786664 0 0 0 6.34205,13.87381 10.786664,10.786664 0 0 0 0.76395,0.25065 10.786664,10.786664 0 0 1 -5.75828,-13.62233 10.786664,10.786664 0 0 1 13.11044,-6.5925 10.786664,10.786664 0 0 0 -0.58436,-0.25168 10.786664,10.786664 0 0 0 -13.87381,6.34206 z"
         id="path4306"
         inkscape:connector-curvature="0" />
      <ellipse
         style="fill:#ffe6d5;fill-opacity:1;stroke:none;stroke-width:4;stroke-miterlimit:4;stroke-dasharray:none;stroke-opacity:1"
         id="ellipse4308"
         cx="-576.73334"
         cy="282.93646"
         rx="16.5"
         ry="26.697561"
         transform="matrix(-0.92702849,-0.3749909,-0.3749909,0.92702849,0,0)" />
    </g>
    <circle
       style="fill:#b3b3b3;fill-opacity:1;stroke:none;stroke-width:4;stroke-miterlimit:4;stroke-dasharray:none;stroke-opacity:1"
       id="path4382"
       cx="-3882.0161"
       cy="1531.7806"
       r="428.50671" />
    <g
       id="g4360"
       transform="translate(-1607.2266,538.02206)">
      <g
         id="g4320"
         transform="matrix(2.5902943,0,0,2.5902943,-3267.0009,-110.55104)">
        <g
           id="g4322"
           transform="translate(287.08535,-6)">
          <path
             sodipodi:nodetypes="ccccccc"
             inkscape:connector-curvature="0"
             id="path4324"
             d="M 45.714287,495.21936 C -2.3214343,461.18364 7.5,344.8622 7.5,344.8622 c 0,0 4.577822,25.32452 18.5,30 0,0 -5.857676,-8.60984 -4,-20.5 6.521005,24.33672 66.144478,20.60624 73.714289,48.85716 l 0,94.64284 z"
             style="fill:#4d4d4d;fill-opacity:1;fill-rule:evenodd;stroke:none;stroke-width:1px;stroke-linecap:butt;stroke-linejoin:miter;stroke-opacity:1" />
          <path
             style="fill:#4d4d4d;fill-opacity:1;fill-rule:evenodd;stroke:#4d4d4d;stroke-width:1px;stroke-linecap:butt;stroke-linejoin:miter;stroke-opacity:1"
             d="m 145.71429,495.21936 c 48.03573,-34.03572 38.21429,-150.35716 38.21429,-150.35716 0,0 -4.57782,25.32452 -18.5,30 0,0 5.85767,-8.60984 4,-20.5 -6.52101,24.33672 -66.14448,20.60624 -73.714291,48.85716 l 0,94.64284 z"
             id="path4326"
             inkscape:connector-curvature="0"
             sodipodi:nodetypes="ccccccc" />
        </g>
        <path
           style="fill:#ffe6d5;stroke-width:4;stroke-miterlimit:4;stroke-dasharray:none"
           d="m 332.79964,495.21935 100,0 c 0,0 1.37367,25.46312 0,30 -1.37367,4.53688 -15.88529,27.79774 -20.00029,30 -4.115,2.20226 -55.88509,2.20225 -60,0 -4.1149,-2.20225 -18.62608,-25.46315 -19.99971,-30 -1.37363,-4.53685 0,-30 0,-30 z"
           id="path4328"
           inkscape:connector-curvature="0"
           sodipodi:nodetypes="cczzzzc" />
        <path
           style="fill:#ffe6d5;stroke-width:4;stroke-miterlimit:4;stroke-dasharray:none"
           d="m 332.79964,419.21936 c 12.01851,12.0185 37.9815,7.98149 50,20 12.0185,-12.01851 37.98149,-7.98149 50,-20 l 0,76 -100,0 z"
           id="path4330"
           inkscape:connector-curvature="0"
           sodipodi:nodetypes="cccccc" />
        <ellipse
           style="fill:#ffe6d5;fill-opacity:1;stroke:none;stroke-width:4;stroke-miterlimit:4;stroke-dasharray:none;stroke-opacity:1"
           id="ellipse4332"
           cx="132.99915"
           cy="570.02917"
           rx="16.5"
           ry="26.697561"
           transform="matrix(0.92702849,-0.3749909,0.3749909,0.92702849,0,0)" />
        <path
           inkscape:connector-curvature="0"
           style="fill:#4d4d4d;fill-opacity:1;stroke-width:4;stroke-miterlimit:4;stroke-dasharray:none"
           d="m 332.59317,499.59961 c -0.32243,7.47488 -0.80985,22.26059 0.20703,25.61914 1.37363,4.53685 15.8851,27.79775 20,30 4.11491,2.20225 55.88499,2.20226 59.99999,0 4.115,-2.20226 18.62633,-25.46312 20,-30 1.01565,-3.3544 0.52948,-18.1041 0.20704,-25.58789 a 74,74 0 0 1 -24.83204,15.19141 27.5,27.5 0 0 1 2.125,10.53906 27.5,27.5 0 0 1 -27.49999,27.5 27.5,27.5 0 0 1 -27.5,-27.5 27.5,27.5 0 0 1 2.14062,-10.62891 74,74 0 0 1 -24.84765,-15.13281 z"
           id="path4334" />
        <path
           style="fill:#333333;fill-opacity:1;stroke:none;stroke-width:4;stroke-miterlimit:4;stroke-dasharray:none;stroke-opacity:1"
           d="m 356.72985,439.77807 a 17.92838,17.92838 0 0 0 1.3054,25.32093 17.92838,17.92838 0 0 0 1.02699,0.85505 17.92838,17.92838 0 0 1 -0.55731,-24.57493 17.92838,17.92838 0 0 1 24.29471,-2.15976 17.92838,17.92838 0 0 0 -0.74888,-0.74668 17.92838,17.92838 0 0 0 -25.32093,1.30541 z"
           id="path4336"
           inkscape:connector-curvature="0" />
        <path
           inkscape:connector-curvature="0"
           id="path4338"
           d="m 368.34148,445.30973 a 10.786664,10.786664 0 0 0 6.34205,13.87381 10.786664,10.786664 0 0 0 0.76395,0.25065 10.786664,10.786664 0 0 1 -5.75828,-13.62233 10.786664,10.786664 0 0 1 13.11044,-6.5925 10.786664,10.786664 0 0 0 -0.58436,-0.25168 10.786664,10.786664 0 0 0 -13.87381,6.34206 z"
           style="fill:#333333;fill-opacity:1;stroke:none;stroke-width:4;stroke-miterlimit:4;stroke-dasharray:none;stroke-opacity:1" />
        <ellipse
           transform="matrix(-0.92702849,-0.3749909,-0.3749909,0.92702849,0,0)"
           ry="26.697561"
           rx="16.5"
           cy="282.93646"
           cx="-576.73334"
           id="ellipse4340"
           style="fill:#ffe6d5;fill-opacity:1;stroke:none;stroke-width:4;stroke-miterlimit:4;stroke-dasharray:none;stroke-opacity:1" />
      </g>
      <g
         id="g4342"
         transform="translate(-836.95718,497.91082)">
        <g
           id="g4344"
           transform="matrix(0.54728992,0.31597799,-0.31597799,0.54728992,-1194.4611,619.54895)">
          <ellipse
             style="fill:#4d4d4d;fill-opacity:1;stroke:none;stroke-width:4;stroke-miterlimit:4;stroke-dasharray:none;stroke-opacity:1"
             id="ellipse4346"
             cx="-316.50186"
             cy="398.56372"
             rx="5.6568542"
             ry="390.32294"
             transform="matrix(0.99804613,-0.06248141,0.06248141,0.99804613,0,0)" />
          <ellipse
             ry="390.32294"
             rx="5.6568542"
             cy="418.32294"
             cx="-227.98065"
             id="ellipse4348"
             style="fill:#4d4d4d;fill-opacity:1;stroke:none;stroke-width:4;stroke-miterlimit:4;stroke-dasharray:none;stroke-opacity:1" />
          <ellipse
             transform="matrix(-0.99804613,-0.06248141,-0.06248141,0.99804613,0,0)"
             ry="390.32294"
             rx="5.6568542"
             cy="427.0528"
             cx="138.56857"
             id="ellipse4350"
             style="fill:#4d4d4d;fill-opacity:1;stroke:none;stroke-width:4;stroke-miterlimit:4;stroke-dasharray:none;stroke-opacity:1" />
        </g>
        <g
           transform="matrix(-0.54728992,0.31597799,0.31597799,0.54728992,-1681.2036,619.54895)"
           id="g4352">
          <ellipse
             transform="matrix(0.99804613,-0.06248141,0.06248141,0.99804613,0,0)"
             ry="390.32294"
             rx="5.6568542"
             cy="398.56372"
             cx="-316.50186"
             id="ellipse4354"
             style="fill:#4d4d4d;fill-opacity:1;stroke:none;stroke-width:4;stroke-miterlimit:4;stroke-dasharray:none;stroke-opacity:1" />
          <ellipse
             style="fill:#4d4d4d;fill-opacity:1;stroke:none;stroke-width:4;stroke-miterlimit:4;stroke-dasharray:none;stroke-opacity:1"
             id="ellipse4356"
             cx="-227.98065"
             cy="418.32294"
             rx="5.6568542"
             ry="390.32294" />
          <ellipse
             style="fill:#4d4d4d;fill-opacity:1;stroke:none;stroke-width:4;stroke-miterlimit:4;stroke-dasharray:none;stroke-opacity:1"
             id="ellipse4358"
             cx="138.56857"
             cy="427.0528"
             rx="5.6568542"
             ry="390.32294"
             transform="matrix(-0.99804613,-0.06248141,-0.06248141,0.99804613,0,0)" />
        </g>
      </g>
    </g>
    <path
       style="fill:#b3b3b3;fill-opacity:1;stroke:none;stroke-width:4;stroke-miterlimit:4;stroke-dasharray:none;stroke-opacity:1"
       d="m -2528.6136,1531.7806 a 428.50671,428.50671 0 0 1 -428.5068,428.5068 428.50671,428.50671 0 0 1 -428.5067,-428.5068 428.50671,428.50671 0 0 1 428.5067,-428.5067 428.50671,428.50671 0 0 1 428.5068,428.5067 z"
       id="circle4386" />
  </g>
</svg>
